Coordinates
version=1
nRows=31
nColumns=33
inDegrees=yes

Units are S.I. units (second, meters, Newtons, ...)
Angles are in degrees.

endheader
time	ground_thorax_rot_x	ground_thorax_rot_y	ground_thorax_rot_z	ground_thorax_tx	ground_thorax_ty	ground_thorax_tz	clav_prot_r	clav_elev_r	scapula_abduction_r	scapula_elevation_r	scapula_upward_rot_r	scapula_winging_r	shoulder_elv_r	plane_of_elev_r	axial_rot_r	elbow_flexion_r	pro_sup_r	wrist_flex_r	wrist_dev_r	clav_prot_l	clav_elev_l	scapula_abduction_l	scapula_elevation_l	scapula_upward_rot_l	scapula_winging_l	shoulder_elv_l	plane_of_elev_l	axial_rot_l	elbow_flexion_l	pro_sup_l	wrist_flex_l	wrist_dev_l	
3.5200	40.487919	7.572982	3.355520	-61.354278	786.142601	2.016316	15.005386	42.738517	45.000000	43.348954	-20.075306	-1880.256739	-2993.845796	145.898882	-161.203838	727.432758	32.777662	16.791028	13.154945	7.009612	-45.000000	-45.000000	45.000000	-12.257345	1523.590050	-1538.290415	132.518651	-149.785834	1081.551999	41.126507	12.858227	-20.198152	
3.5300	40.494781	7.460702	3.430059	-61.111649	786.286191	2.186423	15.108875	42.760573	45.000000	43.426515	-20.435673	-1880.099624	-2993.705345	145.787009	-162.000599	727.356190	32.428969	16.835947	13.273387	6.901758	-45.000000	-45.000000	45.000000	-12.156821	1523.624731	-1538.289861	132.516690	-149.741420	1081.436851	41.030781	12.838516	-20.156019	
3.5400	40.508219	7.364826	3.519684	-60.934679	786.446752	2.361051	15.158122	42.873152	45.000000	43.539442	-20.809388	-1879.926287	-2993.577759	145.707447	-162.703752	727.277504	32.098662	16.940308	13.410539	6.752661	-45.000000	-45.000000	45.000000	-12.056245	1523.635509	-1538.293682	132.551834	-149.689605	1081.307754	40.926626	12.797824	-20.127575	
3.5500	40.521647	7.223044	3.571556	-60.895522	786.641672	2.548481	15.187839	42.902205	45.000000	43.619127	-21.013910	-1879.850286	-2993.478637	145.639340	-163.237940	727.261436	31.820514	16.995959	13.502410	6.657877	-45.000000	-45.000000	45.000000	-11.935874	1523.687501	-1538.270682	132.556109	-149.617333	1081.215390	40.814584	12.777879	-20.100744	
3.5600	40.534334	7.055997	3.610615	-61.008954	786.875919	2.745836	15.194553	42.900884	45.000000	43.687656	-21.115743	-1879.835766	-2993.402993	145.582746	-163.616479	727.279966	31.574947	17.037817	13.564807	6.584526	-45.000000	-45.000000	45.000000	-11.815235	1523.767207	-1538.223240	132.546134	-149.545108	1081.137984	40.688465	12.762779	-20.081470	
3.5700	40.549833	6.881101	3.656498	-61.299835	787.157041	2.951099	15.164595	42.903733	45.000000	43.760567	-21.144635	-1879.863613	-2993.342739	145.557718	-163.842911	727.341623	31.348357	17.081525	13.608439	6.523850	-45.000000	-45.000000	45.000000	-11.698378	1523.860551	-1538.165627	132.553656	-149.481734	1081.080086	40.538817	12.745596	-20.073986	
3.5800	40.561440	6.696220	3.707598	-61.777896	787.489369	3.159225	15.129353	42.902807	45.000000	43.833735	-21.137102	-1879.932933	-2993.289126	145.536290	-163.959301	727.433379	31.116364	17.120385	13.626121	6.476730	-45.000000	-45.000000	45.000000	-11.603619	1523.983660	-1538.086755	132.553016	-149.459382	1081.045434	40.358497	12.723417	-20.078071	
3.5900	40.582807	6.524505	3.785187	-62.446547	787.876289	3.364389	15.085517	42.977928	45.000000	43.956112	-21.173314	-1879.991461	-2993.230638	145.539926	-164.009125	727.561655	30.850949	17.175212	13.632886	6.429948	-45.000000	-45.000000	45.000000	-11.545252	1524.107821	-1538.016303	132.589467	-149.489089	1081.049793	40.132251	12.684688	-20.096716	
3.6000	40.602497	6.357022	3.878801	-63.310079	788.321747	3.561549	15.067195	43.088581	45.000000	44.103826	-21.258949	-1880.058704	-2993.157289	145.538974	-164.037772	727.722753	30.535969	17.225083	13.616298	6.399139	-45.000000	-45.000000	45.000000	-11.528099	1524.257497	-1537.937021	132.627762	-149.596055	1081.100905	39.854401	12.634451	-20.126149	
3.6100	40.623527	6.204297	3.995152	-64.373982	788.830579	3.746671	15.055698	43.255753	45.000000	44.288643	-21.411768	-1880.118196	-2993.063585	145.551552	-164.057593	727.922275	30.170069	17.285243	13.590415	6.375183	-45.000000	-45.000000	45.000000	-11.540359	1524.420119	-1537.866050	132.695511	-149.784409	1081.205568	39.520955	12.568059	-20.168910	
3.6200	40.631014	6.053205	4.121857	-65.644693	789.408101	3.916588	15.057746	43.404881	45.000000	44.474259	-21.593709	-1880.199636	-2992.956077	145.554858	-164.071202	728.140936	29.765674	17.346781	13.550692	6.359820	-45.000000	-45.000000	45.000000	-11.567544	1524.622919	-1537.786060	132.760093	-150.070596	1081.349500	39.141545	12.490797	-20.224090	
3.6300	40.626408	5.910948	4.266729	-67.129397	790.059797	4.068977	15.059763	43.545472	44.999999	44.662522	-21.802015	-1880.292260	-2992.836285	145.565773	-164.070714	728.376969	29.333625	17.417465	13.502300	6.346495	-45.000000	-44.999999	45.000000	-11.598594	1524.856216	-1537.709399	132.845137	-150.449085	1081.529081	38.721756	12.400951	-20.291926	
3.6400	40.591858	5.774838	4.429688	-68.835346	790.790594	4.202001	15.059564	43.592156	44.999999	44.809055	-21.989698	-1880.431854	-2992.717000	145.570655	-164.042357	728.613274	28.889815	17.495879	13.445063	6.334895	-45.000000	-44.999999	45.000000	-11.615959	1525.146708	-1537.618231	132.923657	-150.921183	1081.721610	38.274835	12.303709	-20.372646	
3.6500	40.527311	5.654563	4.616224	-70.769304	791.604254	4.314123	15.064259	43.606961	44.999997	44.908682	-22.182215	-1880.609472	-2992.578092	145.576604	-163.982303	728.853514	28.434954	17.579135	13.367442	6.328247	-45.000000	-44.999998	45.000000	-11.629703	1525.478241	-1537.508524	133.008800	-151.474879	1081.926584	37.803336	12.196991	-20.460318	
3.6600	40.431453	5.550552	4.827250	-72.936605	792.502908	4.403974	15.082930	43.579672	44.999995	44.960142	-22.383410	-1880.828536	-2992.423401	145.574795	-163.887523	729.090998	27.966104	17.663008	13.265821	6.333363	-45.000000	-44.999997	45.000000	-11.654060	1525.852726	-1537.372454	133.089968	-152.097825	1082.133050	37.307339	12.083904	-20.550734	
3.6700	40.316041	5.467411	5.059795	-75.341001	793.486981	4.470366	15.118907	43.586547	44.999992	44.987702	-22.633051	-1881.063433	-2992.235319	145.575492	-163.761076	729.335822	27.471094	17.743951	13.132336	6.352327	-45.000000	-44.999995	45.000000	-11.704259	1526.246699	-1537.217680	133.183158	-152.771352	1082.351632	36.780150	11.963452	-20.639761	
3.6800	40.182321	5.408928	5.318436	-77.984270	794.555241	4.512325	15.188482	43.574282	44.999985	44.998194	-22.936358	-1881.319921	-2992.029268	145.568708	-163.614338	729.578626	26.936930	17.820326	12.975025	6.395604	-45.000000	-44.999990	45.000000	-11.801408	1526.670117	-1537.041696	133.272508	-153.485227	1082.575643	36.214292	11.839584	-20.725002	
3.6900	40.038490	5.368961	5.589108	-80.866193	795.705083	4.529245	15.255901	43.582099	44.999974	45.000000	-23.291370	-1881.581362	-2991.789918	145.570257	-163.439878	729.824231	26.366861	17.894392	12.794945	6.447437	-45.000000	-44.999983	45.000000	-11.924478	1527.105044	-1536.853793	133.375850	-154.233118	1082.804442	35.615926	11.714240	-20.808534	
3.7000	39.888139	5.340353	5.865019	-83.984315	796.932648	4.521007	15.315308	43.554773	44.999953	45.000000	-23.676273	-1881.854458	-2991.537625	145.575826	-163.235806	730.067712	25.768731	17.969242	12.601758	6.506901	-45.000000	-44.999969	45.000000	-12.071487	1527.561864	-1536.659830	133.483882	-155.017994	1083.037155	34.991290	11.589338	-20.893631	
3.7100	39.736082	5.314448	6.131965	-87.333728	798.233009	4.488091	15.324296	43.493538	44.999916	45.000000	-24.067140	-1882.133123	-2991.273315	145.600140	-162.989664	730.310890	25.163455	18.051032	12.399580	6.555242	-45.000000	-44.999945	45.000000	-12.206508	1528.036691	-1536.474439	133.610773	-155.840460	1083.279878	34.354547	11.464894	-20.987908	
3.7200	39.581444	5.296515	6.395963	-90.906982	799.600088	4.431498	15.320630	43.367171	44.999850	45.000000	-24.474164	-1882.428999	-2991.013314	145.627693	-162.722563	730.543273	24.553947	18.135617	12.187983	6.609007	-45.000000	-44.999902	45.000000	-12.360486	1528.539313	-1536.289363	133.737732	-156.703014	1083.534799	33.704431	11.338864	-21.087672	
3.7300	39.426285	5.293146	6.663526	-94.693666	801.026582	4.352651	15.320990	43.232922	44.999731	45.000000	-24.928172	-1882.728817	-2990.740474	145.660194	-162.440168	730.765161	23.939502	18.218399	11.965313	6.676611	-45.000000	-44.999824	45.000000	-12.556907	1529.054995	-1536.100653	133.875503	-157.610304	1083.805207	33.034045	11.209385	-21.187816	
3.7400	39.270547	5.303994	6.934317	-98.680468	802.503767	4.253124	15.348051	43.092879	44.999518	45.000000	-25.440275	-1883.036479	-2990.459135	145.685779	-162.158402	730.973436	23.315492	18.295650	11.730060	6.766925	-45.000000	-44.999685	45.000000	-12.815960	1529.582122	-1535.899719	134.012308	-158.560145	1084.081595	32.335309	11.077713	-21.281617	
3.7500	39.116675	5.330078	7.207236	-102.851466	804.021503	4.134489	15.373800	42.930292	44.999137	45.000000	-26.001972	-1883.353467	-2990.180026	145.707087	-161.874927	731.159127	22.690417	18.370158	11.484937	6.867529	-45.000000	-44.999436	45.000000	-13.110777	1530.116642	-1535.701416	134.158386	-159.539479	1084.355928	31.608072	10.944676	-21.371662	
3.7600	38.966626	5.366571	7.475003	-107.189215	805.568368	3.998177	15.411799	42.753155	44.998454	45.000000	-26.601462	-1883.687170	-2989.913749	145.718803	-161.589804	731.319167	22.072156	18.438618	11.227312	6.979238	-45.000000	-44.998990	45.000000	-13.444120	1530.655496	-1535.499086	134.303964	-160.530342	1084.621036	30.855096	10.809948	-21.453858	
3.7700	38.819635	5.434010	7.767384	-111.674982	807.131844	3.845617	15.511926	42.578482	44.997233	45.000000	-27.267175	-1884.021586	-2989.652676	145.730706	-161.266850	731.457759	21.459064	18.495086	10.965268	7.135730	-45.000000	-44.998191	45.000000	-13.883843	1531.194884	-1535.284269	134.448192	-161.531148	1084.878708	30.061264	10.675075	-21.522585	
3.7800	38.681735	5.506740	8.050101	-116.289594	808.698819	3.678459	15.628358	42.422102	44.995037	45.000000	-27.943248	-1884.354709	-2989.399218	145.758599	-160.874023	731.591445	20.871417	18.547136	10.702401	7.313628	-45.000000	-44.996760	45.000000	-14.392122	1531.728049	-1535.056879	134.583263	-162.503209	1085.120594	29.237964	10.547667	-21.581779	
3.7900	38.548459	5.618415	8.365081	-121.013565	810.255959	3.498624	15.803440	42.267136	44.991128	45.000000	-28.680136	-1884.681322	-2989.155413	145.799339	-160.409879	731.711425	20.310179	18.587782	10.435061	7.543725	-45.000000	-44.994194	45.000000	-15.022244	1532.257028	-1534.820034	134.712144	-163.434192	1085.345835	28.378729	10.426960	-21.627977	
3.8000	38.422877	5.747574	8.683617	-125.827747	811.790526	3.308309	15.998510	42.117176	44.984058	45.000000	-29.442639	-1885.007088	-2988.929123	145.850300	-159.884939	731.821737	19.798682	18.622056	10.164661	7.799164	-45.000000	-44.989606	45.000000	-15.727443	1532.780755	-1534.578658	134.829813	-164.293794	1085.548762	27.501163	10.316062	-21.665152	
3.8100	38.302421	5.909215	9.028840	-130.713000	813.290715	3.109712	16.259734	41.973330	44.971582	45.000000	-30.273768	-1885.317389	-2988.707330	145.904732	-159.309434	731.921513	19.349416	18.645181	9.895812	8.104362	-45.000000	-44.981362	45.000000	-16.553488	1533.298401	-1534.327059	134.934482	-165.084256	1085.733125	26.605367	10.215529	-21.689109	
3.8200	38.192102	6.068139	9.353280	-135.650496	814.746158	2.905115	16.473937	41.821581	44.948708	45.000000	-31.103316	-1885.622962	-2988.504353	145.959650	-158.718494	732.011453	19.015342	18.672281	9.626321	8.394228	-45.000000	-44.966665	45.000000	-17.387236	1533.807861	-1534.088058	135.031495	-165.782945	1085.882905	25.731624	10.124260	-21.712029	
